<svg xmlns="http://www.w3.org/2000/svg" viewBox="0 0 512 512" width="512" height="512">
  <defs>
    <linearGradient id="surface" x1="40" y1="472" x2="472" y2="40" gradientUnits="userSpaceOnUse">
      <stop stop-color="#06120f"/>
      <stop offset="1" stop-color="#12352d"/>
    </linearGradient>
  </defs>
  <rect width="512" height="512" rx="112" fill="url(#surface)"/>
  <rect x="18" y="18" width="476" height="476" rx="98" fill="none" stroke="#ffffff" stroke-opacity="0.14" stroke-width="16"/>
  <path d="M165 323c35 27 121 27 153-4 30-28 9-58-64-68-69-10-91-41-60-72 30-32 110-32 150-7" fill="none" stroke="#34d399" stroke-width="38" stroke-linecap="round"/>
  <path d="M146 353 L217 283 L276 327 L371 180" fill="none" stroke="#7dd3fc" stroke-width="30" stroke-linecap="round" stroke-linejoin="round"/>
  <path d="M309 180 H371 V242" fill="none" stroke="#facc15" stroke-width="30" stroke-linecap="round" stroke-linejoin="round"/>
  <circle cx="146" cy="353" r="28" fill="#7dd3fc"/>
  <circle cx="276" cy="327" r="28" fill="#34d399"/>
  <circle cx="371" cy="180" r="28" fill="#facc15"/>
</svg>
